<svg width="21" height="18" viewBox="0 0 21 18" fill="none" xmlns="http://www.w3.org/2000/svg">
<path d="M19.016 10.6355L17.881 10.4042C17.8567 10.3992 17.8311 10.4042 17.81 10.4177C17.789 10.4315 17.7743 10.4534 17.7694 10.4777C17.658 11.0236 17.4839 11.5599 17.2512 12.0714C17.2231 12.1326 17.194 12.1948 17.1644 12.2556C16.2947 14.0391 14.7825 15.3771 12.9066 16.0228C12.1192 16.2941 11.3033 16.4313 10.4822 16.4313C9.35337 16.4313 8.26006 16.1767 7.23189 15.6753C5.56666 14.8632 4.28543 13.4904 3.60257 11.7933L5.15686 12.5512C5.17943 12.5622 5.20545 12.5639 5.2291 12.5555C5.25275 12.5476 5.27232 12.5304 5.28328 12.5076L5.79113 11.4665C5.81392 11.4195 5.79457 11.3629 5.74748 11.3397L2.31855 9.66757C2.27168 9.645 2.21513 9.66413 2.19212 9.71079L0.865314 12.413C0.862734 12.4179 0.860799 12.4235 0.859294 12.4289L0.824893 12.4991L0.509692 13.1427C0.486686 13.1898 0.506037 13.2464 0.552909 13.2696L0.824893 13.4029L1.59311 13.7794C1.61547 13.7908 1.64171 13.7921 1.66536 13.7839C1.68901 13.7757 1.70857 13.7587 1.71975 13.7359L2.38778 12.3732C2.6718 13.0557 3.03753 13.6964 3.47701 14.2806C4.31511 15.3951 5.37961 16.2719 6.64084 16.8871C7.70534 17.4061 8.84015 17.7013 10.0137 17.7643C10.171 17.7727 10.3308 17.7774 10.4877 17.7774C11.4585 17.7774 12.4196 17.6157 13.345 17.2971C14.4224 16.9262 15.4024 16.3603 16.2579 15.6145C17.1439 14.8426 17.8563 13.9112 18.3757 12.8467C18.4105 12.7749 18.445 12.7018 18.4778 12.6291C18.7524 12.0256 18.9586 11.3924 19.0902 10.7469C19.1005 10.6957 19.0674 10.6456 19.016 10.6355Z" fill="white"/>
<path d="M20.495 4.77551C20.4871 4.75186 20.4699 4.7323 20.4471 4.72112L20.1755 4.58725L19.4082 4.20897C19.3856 4.19779 19.3598 4.19607 19.3359 4.20424C19.3121 4.21241 19.2927 4.22961 19.2813 4.25197L18.5963 5.64221C18.2314 4.75831 17.7279 3.9458 17.0984 3.22445C16.3271 2.34077 15.3972 1.62974 14.3347 1.11157C13.2702 0.592331 12.1353 0.297127 10.9616 0.234129C10.8042 0.225744 10.6447 0.221444 10.4877 0.221444C9.51699 0.221444 8.55569 0.382914 7.6303 0.701555C6.5529 1.07266 5.5729 1.63877 4.71738 2.3842C3.83155 3.15629 3.11902 4.08749 2.59978 5.1522C2.27619 5.81572 2.0371 6.51557 1.88939 7.2324C1.88445 7.25691 1.88918 7.2825 1.90294 7.30357C1.9167 7.32464 1.9382 7.33926 1.96293 7.3442L3.09752 7.57813C3.14869 7.58867 3.19879 7.55577 3.20932 7.5046C3.33446 6.89806 3.53678 6.30529 3.81113 5.74304C4.68083 3.95977 6.19319 2.62178 8.06913 1.9759C8.85649 1.70478 9.67223 1.56739 10.4938 1.56739C11.6221 1.56739 12.7157 1.82174 13.7436 2.32314C15.3875 3.1249 16.6617 4.48353 17.3538 6.16575L15.8408 5.43644C15.7935 5.41387 15.7371 5.43343 15.7144 5.48074L15.2112 6.52438C15.1887 6.57147 15.2084 6.62801 15.2555 6.65059L18.6827 8.30249C18.6963 8.30873 18.7101 8.31174 18.7238 8.31174C18.7586 8.31174 18.7922 8.29239 18.8087 8.25884L20.1755 5.48556L20.4897 4.84818C20.5015 4.82539 20.503 4.79938 20.495 4.77551Z" fill="white"/>
<path fill-rule="evenodd" clip-rule="evenodd" d="M0.824893 13.4029V12.4991L0.859294 12.4289C0.860799 12.4235 0.862734 12.4179 0.865314 12.413L2.19212 9.71079C2.21513 9.66413 2.27168 9.645 2.31855 9.66757L5.74748 11.3397C5.79457 11.3629 5.81392 11.4195 5.79113 11.4665L5.28328 12.5076C5.27232 12.5304 5.25275 12.5476 5.2291 12.5555C5.20545 12.5639 5.17943 12.5622 5.15686 12.5512L3.60257 11.7933C4.28543 13.4904 5.56666 14.8632 7.23189 15.6753C8.26006 16.1767 9.35337 16.4313 10.4822 16.4313C11.3033 16.4313 12.1192 16.2941 12.9066 16.0228C14.7825 15.3771 16.2947 14.0391 17.1644 12.2556C17.194 12.1948 17.2231 12.1326 17.2512 12.0714C17.4839 11.5599 17.658 11.0236 17.7694 10.4777C17.7743 10.4534 17.789 10.4315 17.81 10.4177C17.8311 10.4042 17.8567 10.3992 17.881 10.4042L19.016 10.6355C19.0674 10.6456 19.1005 10.6957 19.0902 10.7469C18.9586 11.3924 18.7524 12.0256 18.4778 12.6291C18.445 12.7018 18.4105 12.7749 18.3757 12.8467C17.8563 13.9112 17.1439 14.8426 16.2579 15.6145C15.4024 16.3603 14.4224 16.9262 13.345 17.2971C12.4196 17.6157 11.4585 17.7774 10.4877 17.7774C10.3308 17.7774 10.171 17.7727 10.0137 17.7643C8.84015 17.7013 7.70534 17.4061 6.64084 16.8871C5.37961 16.2719 4.31511 15.3951 3.47701 14.2806C3.03753 13.6964 2.6718 13.0557 2.38778 12.3732L1.71975 13.7359C1.70857 13.7587 1.68901 13.7757 1.66536 13.7839C1.64171 13.7921 1.61547 13.7908 1.59311 13.7794L0.824893 13.4029ZM20.1755 5.48556V4.58725L19.4082 4.20897C19.3856 4.19779 19.3598 4.19607 19.3359 4.20424C19.3121 4.21241 19.2927 4.22961 19.2813 4.25197L18.5963 5.64221C18.2314 4.75831 17.7279 3.9458 17.0984 3.22445C16.3271 2.34077 15.3972 1.62974 14.3347 1.11157C13.2702 0.592331 12.1353 0.297127 10.9616 0.234129C10.8042 0.225744 10.6447 0.221444 10.4877 0.221444C9.51699 0.221444 8.55569 0.382914 7.6303 0.701555C6.5529 1.07266 5.5729 1.63877 4.71738 2.3842C3.83155 3.15629 3.11902 4.08749 2.59978 5.1522C2.27619 5.81572 2.0371 6.51557 1.88939 7.2324C1.88445 7.25691 1.88918 7.2825 1.90294 7.30357C1.9167 7.32464 1.9382 7.33926 1.96293 7.3442L3.09752 7.57813C3.14869 7.58867 3.19879 7.55577 3.20932 7.5046C3.33446 6.89806 3.53678 6.30529 3.81113 5.74304C4.68083 3.95977 6.19319 2.62178 8.06913 1.9759C8.85649 1.70478 9.67223 1.56739 10.4938 1.56739C11.6221 1.56739 12.7157 1.82174 13.7436 2.32314C15.3875 3.1249 16.6617 4.48353 17.3538 6.16575L15.8408 5.43644C15.7935 5.41387 15.7371 5.43343 15.7144 5.48074L15.2112 6.52438C15.1887 6.57147 15.2084 6.62801 15.2555 6.65059L18.6827 8.30249C18.6963 8.30873 18.7101 8.31174 18.7238 8.31174C18.7586 8.31174 18.7922 8.29239 18.8087 8.25884L20.1755 5.48556Z" fill="white"/>
</svg>
