<svg width="15" height="14" viewBox="0 0 15 14" fill="none" xmlns="http://www.w3.org/2000/svg">
<path d="M1.27973 0H11.3908L14.2741 2.88322C14.4199 3.02905 14.5019 3.22685 14.502 3.43311V13.2222C14.502 13.4285 14.42 13.6263 14.2741 13.7722C14.1283 13.9181 13.9305 14 13.7242 14H1.27973C1.07345 14 0.875621 13.9181 0.729759 13.7722C0.583897 13.6263 0.501953 13.4285 0.501953 13.2222V0.777778C0.501953 0.571498 0.583897 0.373667 0.729759 0.227806C0.875621 0.0819442 1.07345 0 1.27973 0ZM7.50195 11.6667C8.12079 11.6667 8.71428 11.4208 9.15187 10.9832C9.58945 10.5457 9.83529 9.95217 9.83529 9.33333C9.83529 8.71449 9.58945 8.121 9.15187 7.68342C8.71428 7.24583 8.12079 7 7.50195 7C6.88311 7 6.28962 7.24583 5.85204 7.68342C5.41445 8.121 5.16862 8.71449 5.16862 9.33333C5.16862 9.95217 5.41445 10.5457 5.85204 10.9832C6.28962 11.4208 6.88311 11.6667 7.50195 11.6667ZM2.05751 1.55556V4.66667H9.83529V1.55556H2.05751Z" fill="white"/>
</svg>
